# xmcd
#
# Track frame offsets:
#	150
#	11968
#	24632
#	40100
#	49116
#	62507
#	73232
#	81828
#	91464
#	100616
#	111106
#	124075
#
# Disc length: 1796 seconds
#
# Revision: 0
# Processed by: cddbd v1.5.2PL0 Copyright (c) Steve Scherf et al.
# Submitted via: EasyCDDAExtractor 10.0.2.1
#
DISCID=9c07020c
DTITLE=Various Artist - Nashville Honky Tonk
DYEAR=2003
DGENRE=Country
TTITLE0=Patsy Cline - Today, Tomorrow, and Forever
TTITLE1=Johnny Cash - Folsom Prison Blues
TTITLE2=Don Williams - Tears
TTITLE3=Jim Reeves - Billy Bayou
TTITLE4=Faron Young - Chapel in the Moonlight
TTITLE5=Geoge Jones - Once a Day
TTITLE6=Waylon Jennings - Love's Gonna Live Here
TTITLE7=Barbara Mandrell - Release Me
TTITLE8=Loretta Lynn - Your Squaw is on the Warpath
TTITLE9=Johnny Paycheck - Jukebox Charlie
TTITLE10=Charley Pride - Help Me Make it Through the Night
TTITLE11=Tom T. Hall - Fox on the Run
EXTD=
EXTT0=
EXTT1=
EXTT2=
EXTT3=
EXTT4=
EXTT5=
EXTT6=
EXTT7=
EXTT8=
EXTT9=
EXTT10=
EXTT11=
PLAYORDER=
